<?xml version="1.0" encoding="UTF-8" standalone="no"?>
<svg
   xmlns:dc="http://purl.org/dc/elements/1.1/"
   xmlns:cc="http://creativecommons.org/ns#"
   xmlns:rdf="http://www.w3.org/1999/02/22-rdf-syntax-ns#"
   xmlns:svg="http://www.w3.org/2000/svg"
   xmlns="http://www.w3.org/2000/svg"
   version="1.1"
   width="387"
   height="362.44565">
  <title
     id="title4148">Project Wok</title>
  <metadata
     id="license">
    <rdf:RDF>
      <cc:Work
         rdf:about="">
        <dc:format>image/svg+xml</dc:format>
        <dc:type
           rdf:resource="http://purl.org/dc/dcmitype/StillImage" />
        <dc:title>Project Wok</dc:title>
        <cc:license
           rdf:resource="http://www.apache.org/licenses/LICENSE-2.0" />
        <dc:date>2013 - 2015</dc:date>
        <dc:creator>
          <cc:Agent>
            <dc:title>IBM, Corp.</dc:title>
          </cc:Agent>
        </dc:creator>
        <dc:rights>
          <cc:Agent>
            <dc:title>IBM, Corp.</dc:title>
          </cc:Agent>
        </dc:rights>
        <dc:publisher>
          <cc:Agent>
            <dc:title>IBM, Corp.</dc:title>
          </cc:Agent>
        </dc:publisher>
        <dc:contributor>
          <cc:Agent>
            <dc:title>https://github.com/kimchi-project</dc:title>
          </cc:Agent>
        </dc:contributor>
        <dc:description>An HTML5 management interface for KVM</dc:description>
      </cc:Work>
    </rdf:RDF>
  </metadata>
  <g
     transform="matrix(14.884677,0,0,-14.884677,-0.00160396,374.72078)"
     id="kimchi">
    <title
       id="title4176">Kimchi Logo</title>
    <g
       id="g4176"
       clip-path="url(#clipPath4178)">
      <g
         id="g4182"
         transform="translate(9.897,24.9951)">
        <path
           d="m 0,0 c 1.024,-0.466 1.477,-1.674 1.012,-2.699 -0.47,-1.032 -1.59,-1.106 -2.455,-1.646 -0.987,-0.616 -1.656,-1.465 -1.967,-2.596 -0.154,-0.562 -0.201,-1.148 -0.176,-1.73 0.014,-0.344 -0.026,-1.268 0.209,-1.545 -1.355,1.584 -1.983,3.594 -1.633,5.789 0.243,1.529 0.924,2.602 1.847,3.478 C -2.341,-0.168 -1.136,0.517 0,0"
           style="fill:#ba006e;fill-opacity:1;fill-rule:nonzero;stroke:none"
           id="path4184"
            />
      </g>
      <g
         id="g4186"
         transform="translate(21.6929,21.9248)">
        <path
           d="m 0,0 c 0.14,-1.116 -0.652,-2.135 -1.77,-2.276 -1.124,-0.14 -1.773,0.774 -2.687,1.227 -1.042,0.519 -2.115,0.644 -3.242,0.315 -0.56,-0.162 -1.083,-0.429 -1.566,-0.755 -0.285,-0.194 -1.094,-0.644 -1.205,-0.989 0.638,1.985 2.02,3.572 4.074,4.424 1.429,0.595 2.7,0.577 3.93,0.25 C -1.371,1.905 -0.156,1.238 0,0"
           style="fill:#d9182d;fill-opacity:1;fill-rule:nonzero;stroke:none"
           id="path4188"
            />
      </g>
      <g
         id="g4190"
         transform="translate(25.2925,10.2148)">
        <path
           d="m 0,0 c -0.842,-0.746 -2.131,-0.669 -2.878,0.174 -0.752,0.848 -0.363,1.901 -0.505,2.911 -0.161,1.153 -0.664,2.108 -1.572,2.853 -0.45,0.371 -0.966,0.651 -1.508,0.866 -0.321,0.125 -1.149,0.539 -1.496,0.435 1.998,0.595 4.087,0.351 5.952,-0.861 1.298,-0.844 2,-1.902 2.425,-3.103 C 0.798,2.207 0.935,0.828 0,0"
           style="fill:#f19027;fill-opacity:1;fill-rule:nonzero;stroke:none"
           id="path4192"
            />
      </g>
      <g
         id="g4194"
         transform="translate(16.667,0.9355)">
        <path
           d="M 0,0 C -1.062,0.368 -1.625,1.53 -1.257,2.595 -0.883,3.665 0.224,3.842 1.035,4.46 1.961,5.164 2.548,6.071 2.754,7.228 2.856,7.801 2.848,8.388 2.77,8.966 2.723,9.307 2.678,10.231 2.417,10.484 3.915,9.032 4.725,7.09 4.579,4.871 4.479,3.327 3.9,2.195 3.062,1.237 2.316,0.384 1.18,-0.409 0,0"
           style="fill:#8cc63f;fill-opacity:1;fill-rule:nonzero;stroke:none"
           id="path4196"
            />
      </g>
      <g
         id="g4198"
         transform="translate(4.0132,4.0723)">
        <path
           d="M 0,0 C -0.134,1.116 0.665,2.132 1.783,2.266 2.909,2.398 3.552,1.479 4.462,1.021 5.502,0.496 6.573,0.365 7.704,0.687 8.264,0.845 8.789,1.109 9.274,1.432 9.56,1.623 10.372,2.069 10.485,2.413 9.834,0.432 8.442,-1.146 6.384,-1.986 4.951,-2.571 3.681,-2.546 2.452,-2.212 1.358,-1.914 0.147,-1.24 0,0"
           style="fill:#00b2ef;fill-opacity:1;fill-rule:nonzero;stroke:none"
           id="path4200"
            />
      </g>
      <g
         id="g4202"
         transform="translate(0.6631,15.7803)">
        <path
           d="M 0,0 C 0.822,0.769 2.112,0.724 2.882,-0.099 3.655,-0.928 3.294,-1.989 3.463,-2.996 3.654,-4.144 4.183,-5.086 5.11,-5.807 5.569,-6.165 6.093,-6.432 6.64,-6.632 6.963,-6.749 7.803,-7.14 8.147,-7.027 6.165,-7.676 4.069,-7.485 2.174,-6.322 0.855,-5.514 0.124,-4.475 -0.333,-3.286 -0.74,-2.228 -0.912,-0.853 0,0"
           style="fill:#00649d;fill-opacity:1;fill-rule:nonzero;stroke:none"
           id="path4204"
            />
      </g>
    </g>
  </g>
</svg>
