<?xml version="1.0" encoding="UTF-8" standalone="no"?>
<!--
2012 - Opensource iconic font from Fontello project http://fontello.github.com/fontelico.font/demo.html

Vitaly Puzrin (Fontello project)

* Angela Berbentseva (emoticons, spinners). berbentseva_angela@yahoo.com
* Sebastian Janzen (crowns). sebastian.janzen@hl-services.de, https://github.com/sja

Contacts

Vitaly Puzrin (Fontello project)

vitaly@rcdesign.ru
https://github.com/puzrin
https://twitter.com/puzrin

Licence

All icons are distributed under CC BY licence.

This work is licensed under the Creative Commons Attribution-ShareAlike 3.0 Unported License. To view a copy of this license, visit http://creativecommons.org/licenses/by-sa/3.0/ or send a letter to Creative Commons, PO Box 1866, Mountain View, CA 94042, USA.
-->
    <svg xmlns:dc="http://purl.org/dc/elements/1.1/" xmlns:cc="http://creativecommons.org/ns#" xmlns:rdf="http://www.w3.org/1999/02/22-rdf-syntax-ns#" xmlns:svg="http://www.w3.org/2000/svg" xmlns="http://www.w3.org/2000/svg" version="1.1" id="spin5" height="20" width="20">
        <title id="title4144">spin5</title>
        <metadata id="metadata4142">
            <rdf:RDF>
                <cc:Work rdf:about="">
                    <dc:format>image/svg+xml</dc:format>
                    <dc:type rdf:resource="http://purl.org/dc/dcmitype/StillImage" />
                    <dc:title>spin5</dc:title>
                    <cc:license rdf:resource="http://creativecommons.org/licenses/by/3.0/" />
                    <dc:creator>
                        <cc:Agent>
                            <dc:title>Angela Berbentseva</dc:title>
                        </cc:Agent>
                    </dc:creator>
                    <dc:rights>
                        <cc:Agent>
                            <dc:title>Fontello project</dc:title>
                        </cc:Agent>
                    </dc:rights>
                </cc:Work>
                <cc:License rdf:about="http://creativecommons.org/licenses/by/3.0/">
                    <cc:permits rdf:resource="http://creativecommons.org/ns#Reproduction" />
                    <cc:permits rdf:resource="http://creativecommons.org/ns#Distribution" />
                    <cc:requires rdf:resource="http://creativecommons.org/ns#Notice" />
                    <cc:requires rdf:resource="http://creativecommons.org/ns#Attribution" />
                    <cc:permits rdf:resource="http://creativecommons.org/ns#DerivativeWorks" />
                </cc:License>
            </rdf:RDF>
        </metadata>
        <path id="path3" d="m 9.23077,19.99992 c -0.11988,0 -0.23976,-0.0999 -0.23976,-0.23976 l 0,-3.63636 c 0,-0.11988 0.0999,-0.23976 0.23976,-0.23976 l 1.37862,0 c 0,0 0.02,0 0.02,0 0.11988,0 0.23976,0.0999 0.23976,0.23976 l 0,3.63636 c 0,0.11988 -0.0999,0.23976 -0.23976,0.23976 l -1.37862,0 c 0,0 -0.02,0 -0.02,0 z m 4.995,-0.93906 c -0.0799,0 -0.15984,-0.04 -0.1998,-0.11988 l -1.81818,-3.15684 c -0.0599,-0.11988 -0.02,-0.25974 0.0799,-0.31968 l 1.1988,-0.69931 c 0,0 0,0 0.02,0 0.11988,-0.0599 0.25974,-0.02 0.31968,0.0799 l 1.81819,3.15685 c 0.0599,0.11988 0.02,0.25974 -0.0799,0.31968 l -1.21879,0.6993 c -0.04,0.02 -0.0799,0.02 -0.0999,0.04 z m -8.55144,-0.0599 c -0.04,0 -0.0799,-0.02 -0.0999,-0.04 l -1.21879,-0.6993 c -0.0999,-0.0599 -0.13986,-0.1998 -0.0799,-0.31968 l 1.81819,-3.13687 c 0,0 0,0 0,-0.02 0.0599,-0.11988 0.1998,-0.13986 0.31968,-0.0799 l 1.21878,0.69931 c 0.0999,0.0599 0.13986,0.1998 0.0799,0.31968 l -1.81818,3.13686 c 0,0 0,0 0,0.02 -0.04,0.0799 -0.11988,0.11988 -0.1998,0.11988 z M 18.06194,15.7642 c -0.04,0 -0.0799,-0.02 -0.0999,-0.04 l -3.13687,-1.81819 c 0,0 0,0 -0.02,0 -0.11988,-0.0599 -0.13986,-0.1998 -0.0799,-0.31968 l 0.69931,-1.21878 c 0.0599,-0.0999 0.1998,-0.13986 0.31968,-0.0799 l 3.13686,1.81818 c 0,0 0,0 0.02,0 0.11988,0.0599 0.13986,0.1998 0.0799,0.31968 l -0.6993,1.21879 c -0.04,0.0799 -0.11988,0.11988 -0.1998,0.11988 z M 1.87812,15.6643 c -0.0799,0 -0.15984,-0.04 -0.1998,-0.11988 l -0.6993,-1.21879 c -0.0599,-0.11988 -0.02,-0.25974 0.0799,-0.31968 l 3.15684,-1.81818 c 0.11988,-0.0599 0.25974,-0.02 0.31968,0.0799 l 0.69931,1.1988 c 0,0 0,0 0,0.02 0.0599,0.11988 0.02,0.25974 -0.0799,0.31968 L 1.998,15.62434 c -0.04,0.02 -0.0799,0.02 -0.0999,0.04 z m 14.24576,-4.67533 c -0.11988,0 -0.23976,-0.0999 -0.23976,-0.23976 l 0,-1.37862 c 0,0 0,-0.02 0,-0.02 0,-0.11988 0.0999,-0.23976 0.23976,-0.23976 l 3.63636,0 C 19.88012,9.11083 20,9.21073 20,9.35059 l 0,1.37862 c 0,0 0,0.02 0,0.02 0,0.11988 -0.0999,0.23976 -0.23976,0.23976 l -3.63636,0 z M 0.23976,10.88907 C 0.11988,10.88907 0,10.78917 0,10.64931 L 0,9.27069 c 0,0 0,-0.02 0,-0.02 C 0,9.13081 0.0999,9.01093 0.23976,9.01093 l 3.63636,0 c 0.11988,0 0.23976,0.0999 0.23976,0.23976 l 0,1.37862 c 0,0 0,0.02 0,0.02 0,0.11988 -0.0999,0.23976 -0.23976,0.23976 l -3.63636,0 z M 15.68432,7.83213 c -0.0799,0 -0.15984,-0.04 -0.1998,-0.11988 l -0.69931,-1.1988 c 0,0 0,0 0,-0.02 -0.0599,-0.11988 -0.02,-0.25974 0.0799,-0.31968 l 3.15685,-1.81819 c 0.11988,-0.0599 0.25974,-0.02 0.31968,0.0799 l 0.6993,1.21879 c 0.0599,0.11988 0.02,0.25974 -0.0799,0.31968 L 15.8042,7.79213 c -0.04,0.02 -0.0799,0.02 -0.0999,0.04 z M 4.37562,7.73223 c -0.04,0 -0.0799,-0.02 -0.0999,-0.04 L 1.13886,5.87405 c 0,0 0,0 -0.02,0 C 0.99898,5.81415 0.979,5.67425 1.03896,5.55437 l 0.6993,-1.21879 c 0.0599,-0.0999 0.1998,-0.13986 0.31968,-0.0799 l 3.13687,1.81819 c 0,0 0,0 0.02,0 0.11988,0.0599 0.13986,0.1998 0.0799,0.31968 L 4.5954,7.61233 c -0.04,0.0799 -0.11988,0.11988 -0.1998,0.11988 z m 9.33067,-2.41758 c -0.04,0 -0.0799,-0.02 -0.0999,-0.04 L 12.38761,4.57534 c -0.0999,-0.0599 -0.13986,-0.1998 -0.0799,-0.31968 L 14.12589,1.1188 c 0,0 0,0 0,-0.02 0.0599,-0.11988 0.1998,-0.13986 0.31968,-0.0799 l 1.21879,0.6993 c 0.0999,0.0599 0.13986,0.1998 0.0799,0.31968 l -1.81819,3.13687 c 0,0 0,0 0,0.02 -0.04,0.0799 -0.11988,0.11988 -0.1998,0.11988 z M 6.39361,5.25475 c -0.0799,0 -0.15984,-0.04 -0.1998,-0.11988 L 4.37562,1.97802 c -0.0599,-0.11988 -0.02,-0.25974 0.0799,-0.31968 l 1.21879,-0.6993 c 0.11988,-0.0599 0.25974,-0.02 0.31968,0.0799 l 1.81818,3.15684 c 0.0599,0.11988 0.02,0.25974 -0.0799,0.31968 l -1.1988,0.69931 c 0,0 0,0 -0.02,0 -0.04,0.02 -0.0799,0.04 -0.0999,0.04 z M 9.35065,4.11588 c -0.11988,0 -0.23976,-0.0999 -0.23976,-0.23976 l 0,-3.63636 C 9.11089,0.11988 9.21079,0 9.35065,0 l 1.37862,0 c 0,0 0.02,0 0.02,0 0.11988,0 0.23976,0.0999 0.23976,0.23976 l 0,3.63636 c 0,0.11988 -0.0999,0.23976 -0.23976,0.23976 l -1.37862,0 c 0,0 -0.02,0 -0.02,0 z" style="fill:#777777;" />
    </svg>
